<?xml version="1.0" encoding="utf-8"?>
<!-- Generator: Adobe Illustrator 25.2.1, SVG Export Plug-In . SVG Version: 6.00 Build 0)  -->
<svg version="1.1" id="Calque_1" xmlns="http://www.w3.org/2000/svg" xmlns:xlink="http://www.w3.org/1999/xlink" x="0px" y="0px"
	 viewBox="0 0 262.2 101" style="enable-background:new 0 0 262.2 101;" xml:space="preserve">
<style type="text/css">
	.st0{fill:#FFFFFF;}
</style>
<path class="st0" d="M162.1,96.2h-10l-2.1,4.6h-4.1L157,78.3h0.2l11.2,22.5h-4.1L162.1,96.2z M160.8,93.3l-3.7-8.1l-3.7,8.1H160.8z"
	/>
<path class="st0" d="M196.3,97.6v3.2H181V78.6h14.9v3.1h-11.1V88h7.9v3.2h-7.9v6.4H196.3z"/>
<path class="st0" d="M223.6,100.8l-5.6-7.9h-4.3v7.9h-3.8V78.6h8c5.2,0,8.3,2.9,8.3,7.2c0.1,3-1.8,5.6-4.6,6.5l6.1,8.5L223.6,100.8z
	 M213.7,89.9h4.1c2.9,0,4.7-1.4,4.7-4.1s-1.8-4.1-4.7-4.1h-4.1V89.9z"/>
<path class="st0" d="M262.2,89.7c0,6.7-5.8,11.3-11.7,11.3s-11.6-4.6-11.6-11.3s5.9-11.4,11.6-11.4C256.2,78.3,262.2,83,262.2,89.7z
	 M243,89.7c-0.1,4.2,3.2,7.7,7.4,7.8c0.1,0,0.1,0,0.2,0c4.1,0.1,7.4-3.2,7.5-7.3c0-0.2,0-0.3,0-0.5c0-4.8-3.4-7.9-7.5-7.9
	c-4.3,0.1-7.7,3.5-7.6,7.8C243,89.6,243,89.7,243,89.7L243,89.7z"/>
<path class="st0" d="M28.9,64.6H12.3l-2.6,5.8H0l20.5-40.7h0.3l20.4,40.7h-9.7L28.9,64.6z M25.8,57.7l-5.2-11.4l-5.2,11.4L25.8,57.7
	z"/>
<path class="st0" d="M90,55.8c0,12.4-11.4,15-17.4,15s-17.5-2.6-17.5-15V30.1h8.7v25.7c0,10.2,17.5,10.2,17.5,0V30.1H90V55.8z"/>
<path class="st0" d="M188.8,64.6h-16.6l-2.6,5.8h-9.7l20.4-40.7h0.4l20.4,40.7h-9.8L188.8,64.6z M185.6,57.7l-5.1-11.4l-5.2,11.4
	H185.6z"/>
<polygon class="st0" points="126.9,56.8 106.2,56.8 84.4,100.6 123.6,100.6 137.6,72.5 "/>
<path class="st0" d="M132,48c1.3-1.1,1.9-2.7,1.8-4.4c0-3.9-2.3-5.8-6.9-5.8h-11.2l-5.8,11.7h17C128.7,49.6,130.5,49.1,132,48z"/>
<path class="st0" d="M172.9,0h-8.1c-18.4,0-32.1,3.2-37.4,14.3l-7.9,15.8h8c4.8,0,8.5,1.2,11.2,3.7s4,5.7,4,9.8
	c0.1,2.5-0.6,5-1.9,7.1c-1.3,2.1-3.2,3.7-5.4,4.6l6.3,9l31.7-63.6C173.6,0.4,173.4,0,172.9,0z"/>
</svg>
