<?xml version="1.0" standalone="no"?>
<!DOCTYPE svg PUBLIC "-//W3C//DTD SVG 20010904//EN"
 "http://www.w3.org/TR/2001/REC-SVG-20010904/DTD/svg10.dtd">
<svg version="1.0" xmlns="http://www.w3.org/2000/svg"
 width="808.000000pt" height="808.000000pt" viewBox="0 0 808.000000 808.000000"
 preserveAspectRatio="xMidYMid meet">
<metadata>
Created by potrace 1.11, written by Peter Selinger 2001-2013
</metadata>
<g transform="translate(0.000000,808.000000) scale(0.100000,-0.100000)"
fill="#000000" stroke="none">
<path d="M6517 8074 c-1 -1 -65 -5 -142 -9 -228 -11 -345 -21 -495 -41 -19 -2
-57 -6 -85 -9 -47 -5 -66 -8 -125 -20 -14 -3 -41 -7 -60 -10 -19 -2 -46 -7
-60 -10 -14 -4 -38 -8 -55 -10 -16 -3 -77 -16 -135 -30 -58 -14 -116 -28 -129
-31 -14 -3 -28 -7 -33 -10 -4 -3 -18 -7 -29 -9 -69 -14 -361 -122 -406 -151
-13 -8 -23 -12 -23 -9 0 4 -13 -3 -30 -15 -16 -12 -30 -18 -30 -13 0 4 -4 3
-8 -3 -4 -5 -23 -17 -42 -27 -146 -67 -396 -271 -517 -422 -40 -49 -125 -176
-151 -225 -24 -44 -656 -1305 -657 -1310 0 -3 -6 -14 -12 -26 l-12 -20 377 -2
c452 -2 494 -5 652 -39 89 -20 89 -20 93 -23 1 -1 9 -3 17 -5 8 -2 31 -10 51
-19 20 -8 39 -12 43 -9 3 4 6 1 6 -5 0 -7 6 -12 13 -12 6 0 23 -6 37 -13 128
-67 197 -116 275 -194 58 -58 105 -110 105 -118 0 -3 9 -15 19 -26 16 -17 83
-146 112 -214 11 -26 37 -121 44 -160 19 -114 25 -321 12 -425 -14 -107 -97
-339 -130 -361 -5 -3 -8 -9 -8 -13 2 -10 -28 -55 -73 -111 -87 -108 -211 -207
-314 -251 -46 -21 -53 -41 -22 -69 11 -10 20 -24 20 -31 0 -7 4 -14 8 -16 4
-1 33 -39 63 -83 29 -44 61 -88 70 -97 9 -10 22 -31 30 -46 13 -26 23 -39 62
-84 9 -12 17 -24 17 -28 0 -4 11 -20 25 -36 14 -16 25 -34 25 -41 0 -6 4 -13
8 -15 4 -1 28 -32 52 -68 47 -68 49 -70 78 -109 l18 -24 234 469 c129 258 234
471 233 474 -1 3 3 10 8 16 8 10 532 1052 534 1064 2 6 213 429 223 444 3 6
31 63 62 126 31 63 62 126 70 140 8 14 13 28 12 33 -1 4 2 7 8 7 6 0 9 3 8 8
-1 7 51 117 82 172 8 14 15 27 15 30 3 16 261 526 267 528 4 2 8 8 8 14 0 15
403 822 412 826 4 2 8 9 8 16 0 7 62 137 139 289 76 152 135 277 132 277 -3 0
-1 4 5 8 12 8 94 175 94 191 0 30 -46 32 -571 30 -291 -1 -530 -3 -532 -5z"/>
<path d="M2967 5025 c-34 -62 -57 -111 -57 -122 0 -6 -3 -13 -7 -15 -5 -1 -23
-34 -41 -73 -19 -38 -38 -79 -44 -90 -19 -35 -250 -503 -304 -616 -3 -6 1479
-3 1516 3 49 9 100 28 189 71 62 31 161 130 161 162 0 8 4 15 8 15 5 0 16 32
26 70 15 55 17 93 13 173 -5 97 -32 217 -49 217 -4 0 -8 6 -8 13 0 13 -66 86
-109 120 -27 22 -130 62 -181 71 -86 16 -143 18 -608 19 -486 2 -494 2 -505
-18z"/>
<path d="M2239 3522 c-24 -3 -40 -30 -158 -266 -72 -144 -131 -268 -131 -274
0 -7 -4 -12 -10 -12 -5 0 -13 -12 -16 -27 -4 -16 -11 -33 -15 -39 -5 -6 -34
-62 -65 -125 -30 -63 -59 -121 -63 -129 -4 -8 -23 -44 -40 -80 -18 -36 -38
-74 -44 -85 -29 -54 -97 -197 -97 -205 0 -6 -4 -10 -10 -10 -5 0 -9 -3 -8 -7
1 -5 -10 -32 -25 -60 -15 -29 -27 -55 -27 -58 0 -3 -9 -20 -20 -39 -28 -51
-64 -120 -65 -126 -2 -15 -391 -786 -400 -792 -5 -4 -7 -8 -3 -8 3 0 -75 -163
-174 -362 -100 -200 -232 -465 -295 -590 l-113 -228 1575 0 1575 0 27 53 c15
28 39 78 54 110 14 32 31 63 37 69 7 7 12 20 12 29 0 10 3 19 8 21 5 2 292
574 415 828 12 25 25 47 30 48 4 2 7 8 7 14 0 5 119 249 265 541 146 293 265
539 265 548 0 8 -9 25 -20 37 -11 12 -20 26 -20 32 0 5 -3 10 -8 10 -4 0 -16
16 -26 35 -11 19 -23 35 -28 35 -4 0 -8 6 -9 13 0 6 -16 32 -35 57 -19 25 -40
57 -47 73 -6 15 -15 27 -19 27 -3 0 -17 18 -29 40 -13 22 -26 40 -31 40 -4 0
-8 5 -8 11 0 6 -13 28 -30 49 -16 21 -30 42 -30 48 0 6 -3 12 -7 14 -5 2 -32
39 -62 83 -30 44 -86 127 -125 184 -39 57 -78 114 -86 127 -49 76 -226 330
-234 337 -6 4 -23 6 -38 4 -16 -2 -28 0 -28 5 0 5 -5 6 -12 2 -16 -10 -228
-11 -228 -1 0 5 -5 5 -12 1 -16 -10 -228 -11 -228 -1 0 5 -5 5 -12 1 -16 -10
-228 -11 -228 -1 0 5 -5 5 -12 1 -16 -10 -228 -11 -228 -1 0 5 -5 5 -11 1 -16
-10 -130 -11 -136 -2 -2 5 -9 5 -15 2 -15 -10 -258 -10 -258 -1 0 5 -5 5 -10
2 -13 -8 -149 -13 -152 -5 -2 3 -15 4 -29 2z"/>
</g>
</svg>
